<?xml version="1.0" encoding="utf-8"?>
<!-- Generator: Adobe Illustrator 25.2.1, SVG Export Plug-In . SVG Version: 6.00 Build 0)  -->
<svg version="1.1" xmlns="http://www.w3.org/2000/svg" xmlns:xlink="http://www.w3.org/1999/xlink" x="0px" y="0px"
	 viewBox="0 0 128 80" style="enable-background:new 0 0 128 80;" xml:space="preserve">
<style type="text/css">
	.st0{display:none;fill:#FFFFFF;stroke:#000000;stroke-miterlimit:10;}
	.st1{fill:#FFFFFF;}
	.st2{fill:#2D3436;}
	.st3{opacity:0.62;}
	.st4{fill:#81B5E2;}
	.st5{fill:#6562AC;}
	.st6{fill:#91D5DD;}
	.st7{display:none;}
</style>
<g id="Layer_1">
	<path class="st0" d="M98.68,63.66"/>
	<g>
		<path class="st1" d="M123.36,6.58c0-1.65-1.35-3-3-3H7.48c-1.65,0-3,1.35-3,3v66.83c0,1.65,1.35,3,3,3h112.88c1.65,0,3-1.35,3-3
			V6.58z"/>
		<path class="st2" d="M123.26,6.58c0-0.96-0.51-1.88-1.31-2.4c-0.4-0.26-0.86-0.42-1.33-0.46c-0.47-0.02-0.98,0-1.47-0.01
			l-5.91,0.03l-11.82,0.06L77.79,3.93L30.51,4.54L18.69,4.7l-5.91,0.08L9.82,4.82L8.34,4.84L7.6,4.85c-0.25,0-0.31,0.02-0.47,0.05
			C6.58,5.02,6.1,5.44,5.91,5.96c-0.05,0.13-0.08,0.26-0.09,0.4c-0.02,0.07,0,0.14-0.01,0.21l0,0.36L5.83,8.4l0.08,5.91
			c0.05,3.94,0.12,7.88,0.13,11.82l0.24,47.28c0,0.39,0.2,0.78,0.54,1.02c0.17,0.11,0.36,0.18,0.55,0.2
			c0.04,0.01,0.33,0.01,0.58,0.01l0.74,0l5.91,0.03l11.82,0.06l23.64,0.12l47.28,0.6l11.82,0.16l5.91,0.08l2.96,0.04l1.48,0.02
			l0.74,0.01c0.25,0,0.4-0.01,0.61-0.04c0.76-0.14,1.45-0.7,1.75-1.43c0.07-0.18,0.13-0.37,0.16-0.57c0.03-0.18,0.03-0.4,0.03-0.66
			l0.02-1.48l0.08-5.91c0.05-3.94,0.12-7.88,0.13-11.82L123.26,6.58z M123.46,6.58l0.02,47.28l0.01,11.82l0,5.91l0,1.48
			c0.02,0.48-0.03,1.03-0.23,1.5c-0.38,0.96-1.26,1.7-2.27,1.91c-0.52,0.1-1.01,0.05-1.5,0.07l-1.48,0l-2.96,0l-5.91,0l-11.82,0.01
			l-47.28,0.02L26.41,76.6l-11.82,0.01l-5.91,0c-0.5-0.01-0.97,0.02-1.5-0.01c-0.52-0.05-1.03-0.23-1.47-0.52
			c-0.88-0.58-1.44-1.61-1.44-2.66l0.02-47.28l0.01-11.82l0-5.91l0-1.48C4.3,6.44,4.34,5.89,4.54,5.41C4.93,4.44,5.81,3.7,6.84,3.49
			c0.52-0.1,1.02-0.05,1.51-0.07l1.48,0l2.96,0l5.91,0l11.82,0.01l47.28,0.03l23.64,0.01l11.82,0.01l5.91,0
			c0.5,0.01,0.98-0.01,1.49,0.02c0.51,0.05,1,0.23,1.43,0.51C122.93,4.56,123.47,5.56,123.46,6.58z"/>
	</g>
	<g class="st3">
		<path class="st4" d="M13.62,51.37c-1.1-0.01-2-0.91-1.99-2.01l0.07-14.74c0.01-1.1,0.91-2,2.01-1.99l81.8,0.4
			c1.1,0.01,2,0.91,1.99,2.01l-0.07,14.74c-0.01,1.1-0.91,2-2.01,1.99L13.62,51.37z"/>
	</g>
	<g class="st3">
		<path class="st5" d="M13.62,63.97c-1.1-0.01-1.99-0.91-1.99-2.01l0.09-14.74c0.01-1.1,0.91-1.99,2.01-1.99l100.32,0.58
			c1.1,0.01,1.99,0.91,1.99,2.01l-0.09,14.74c-0.01,1.1-0.91,1.99-2.01,1.99L13.62,63.97z"/>
	</g>
	<g class="st3">
		<path class="st6" d="M13.69,37.17c-1.1-0.01-2-0.91-1.99-2.01l0.07-14.74c0.01-1.1,0.91-2,2.01-1.99l62.15,0.3
			c1.1,0.01,2,0.91,1.99,2.01l-0.07,14.74c-0.01,1.1-0.91,2-2.01,1.99L13.69,37.17z"/>
	</g>
</g>
<g id="Layer_2" class="st7">
</g>
</svg>
